<?xml version="1.0" encoding="iso-8859-1"?>
<!-- Generator: Adobe Illustrator 18.1.1, SVG Export Plug-In . SVG Version: 6.00 Build 0)  -->
<svg version="1.1" id="Capa_1" xmlns="http://www.w3.org/2000/svg" xmlns:xlink="http://www.w3.org/1999/xlink" x="0px" y="0px"
	 viewBox="0 0 270 270" style="enable-background:new 0 0 270 270;" xml:space="preserve">
<g>
	<path id="path23502" d="M110.133,0c-28.29,0-53.941,5.669-72.947,15.172S5.133,38.491,5.133,55v160
		c0,16.51,13.046,30.325,32.053,39.828S81.843,270,110.133,270c24.831,0,47.613-4.391,65.664-11.877
		c9.378,7.426,21.213,11.877,34.07,11.877c30.316,0,55-24.684,55-55c0-28.54-21.878-52.08-49.734-54.742V55
		c0-16.509-13.048-30.325-32.055-39.828S138.423,0,110.133,0z M110.133,10c26.939,0,51.288,5.524,68.475,14.117
		S205.133,43.895,205.133,55s-9.339,22.29-26.525,30.883S137.071,100,110.133,100s-51.288-5.524-68.475-14.117
		S15.133,66.105,15.133,55c0-11.105,9.339-22.29,26.525-30.883S83.194,10,110.133,10z M110.133,17.5
		c-25.923,0-49.302,5.415-65.121,13.324C29.173,38.744,22.633,47.798,22.633,55c-0.02,1.381,1.084,2.516,2.465,2.535
		c1.381,0.02,2.516-1.084,2.535-2.465c0-0.024,0-0.047,0-0.071c0-3.795,4.698-12.245,19.615-19.703
		C62.11,27.866,84.913,22.5,110.133,22.5c1.381,0.02,2.516-1.084,2.535-2.465c0.02-1.381-1.084-2.516-2.465-2.535
		C110.18,17.5,110.156,17.5,110.133,17.5z M15.133,78.807c5.559,6.176,13.152,11.571,22.053,16.021
		C56.192,104.331,81.843,110,110.133,110s53.939-5.669,72.945-15.172c8.901-4.45,16.495-9.846,22.055-16.021v29.527
		c0,11.105-9.339,22.29-26.525,30.883c-17.186,8.593-41.536,14.115-68.475,14.115s-51.288-5.522-68.475-14.115
		c-17.186-8.593-26.525-19.778-26.525-30.883V78.807z M15.133,132.139c5.559,6.175,13.152,11.571,22.053,16.021
		c19.006,9.503,44.658,15.172,72.947,15.172s53.939-5.669,72.945-15.172c8.901-4.45,16.495-9.846,22.055-16.021v28.08
		c-23.276,1.998-42.462,18.555-48.373,40.502c-13.764,3.769-29.675,5.945-46.627,5.945c-26.939,0-51.288-5.524-68.475-14.117
		c-17.187-8.593-26.525-19.777-26.525-30.883V132.139z M209.867,170c24.912,0,45,20.088,45,45s-20.088,45-45,45s-45-20.088-45-45
		S184.955,170,209.867,170z M205.232,174.451c-0.226-0.006-0.451,0.018-0.67,0.072c-18.963,4.434-33.259,20.092-35.955,39.379
		c-0.219,1.363,0.709,2.646,2.072,2.865s2.646-0.709,2.865-2.072c0.005-0.033,0.01-0.066,0.014-0.1
		c2.412-17.257,15.176-31.236,32.143-35.203c1.349-0.296,2.202-1.63,1.906-2.978C207.361,175.292,206.381,174.482,205.232,174.451z
		 M209.793,184.93c-2.76,0.041-4.965,2.31-4.926,5.07v20h-20c-2.761-0.039-5.032,2.168-5.071,4.929
		c-0.039,2.761,2.168,5.032,4.929,5.071c0.047,0.001,0.094,0.001,0.141,0h20v20c-0.039,2.761,2.168,5.032,4.929,5.071
		c2.761,0.039,5.032-2.168,5.071-4.929c0.001-0.047,0.001-0.094,0-0.141v-20h20c2.761,0.039,5.032-2.168,5.071-4.929
		c0.039-2.761-2.168-5.032-4.929-5.071c-0.047-0.001-0.094-0.001-0.141,0h-20v-20c0.039-2.761-2.168-5.032-4.93-5.07
		C209.889,184.929,209.841,184.929,209.793,184.93z M15.133,185.473c5.559,6.176,13.152,11.571,22.053,16.021
		c19.006,9.503,44.658,15.172,72.947,15.172c16.051,0,31.242-1.852,44.857-5.168c-0.073,1.159-0.123,2.324-0.123,3.502
		c0,13.512,4.912,25.897,13.031,35.484c-15.967,5.917-36.015,9.516-57.766,9.516c-26.939,0-51.288-5.524-68.475-14.117
		S15.133,226.105,15.133,215V185.473z"/>
</g>
<g>
</g>
<g>
</g>
<g>
</g>
<g>
</g>
<g>
</g>
<g>
</g>
<g>
</g>
<g>
</g>
<g>
</g>
<g>
</g>
<g>
</g>
<g>
</g>
<g>
</g>
<g>
</g>
<g>
</g>
</svg>
