<?xml version="1.0" encoding="iso-8859-1"?>
<!-- Generator: Adobe Illustrator 19.0.0, SVG Export Plug-In . SVG Version: 6.00 Build 0)  -->
<svg version="1.1" id="Layer_1" xmlns="http://www.w3.org/2000/svg" xmlns:xlink="http://www.w3.org/1999/xlink" x="0px" y="0px"
	 viewBox="0 0 508 508" style="enable-background:new 0 0 508 508;" xml:space="preserve">
<circle style="fill:#90DFAA;" cx="254" cy="254" r="254"/>
<rect x="277.31" y="258.52" transform="matrix(-0.7071 0.7071 -0.7071 -0.7071 706.8718 292.2441)" style="fill:#2B3B4E;" width="31.2" height="67.999"/>
<circle style="fill:#FFFFFF;" cx="203.2" cy="203.2" r="114.4"/>
<circle style="fill:#84DBFF;" cx="203.2" cy="203.2" r="92.4"/>
<path style="fill:#324A5E;" d="M416.8,390.8l-26,26c-3.2,3.2-8.4,3.2-11.6,0l-86-85.6c-3.2-3.2-3.2-8.4,0-11.6l26-26
	c3.2-3.2,8.4-3.2,11.6,0l85.6,85.6C420,382.4,420,387.6,416.8,390.8z"/>
<ellipse transform="matrix(0.7071 -0.7071 0.7071 0.7071 -67.1138 154.6143)" style="fill:#FFFFFF;" cx="153.079" cy="158.321" rx="16.4" ry="9.6"/>
<g>
</g>
<g>
</g>
<g>
</g>
<g>
</g>
<g>
</g>
<g>
</g>
<g>
</g>
<g>
</g>
<g>
</g>
<g>
</g>
<g>
</g>
<g>
</g>
<g>
</g>
<g>
</g>
<g>
</g>
</svg>
