<svg version="1.1" xmlns="http://www.w3.org/2000/svg" viewBox="0 0 560.875 102.036" xmlns:xlink="http://www.w3.org/1999/xlink" enable-background="new 0 0 560.875 102.036">
  <g class="letters" fill="#ffffff">
    <path d="m141.596,29.675c0-3.777 2.985-6.767 6.764-6.767h34.438c3.426,0 6.15,2.728 6.15,6.15 0,3.43-2.724,6.149-6.15,6.149h-27.674v13.091h23.719c3.429,0 6.151,2.724 6.151,6.15 0,3.43-2.723,6.149-6.151,6.149h-23.719v17.574c0,3.773-2.986,6.761-6.764,6.761-3.779,0-6.764-2.989-6.764-6.761v-48.496z"/>
    <path d="m193.844,29.149c0-3.781 2.985-6.767 6.764-6.767 3.776,0 6.763,2.985 6.763,6.767v42.957h25.039c3.426,0 6.149,2.726 6.149,6.153 0,3.425-2.723,6.15-6.149,6.15h-31.802c-3.779,0-6.764-2.986-6.764-6.768v-48.492z"/>
    <path d="m241.891,75.71l21.438-48.407c1.492-3.341 4.215-5.357 7.906-5.357h0.792c3.686,0 6.323,2.017 7.815,5.357l21.439,48.407c0.436,0.967 0.701,1.845 0.701,2.723 0,3.602-2.809,6.501-6.414,6.501-3.161,0-5.269-1.845-6.499-4.655l-4.132-9.661h-27.059l-4.301,10.102c-1.144,2.631-3.426,4.214-6.237,4.214-3.517,0-6.24-2.81-6.24-6.325 0-0.969 0.351-1.932 0.791-2.899zm38.041-17.044l-8.521-20.297-8.526,20.297h17.047z"/>
    <path d="m314.864,35.387h-13.004c-3.429,0-6.239-2.813-6.239-6.238 0-3.429 2.811-6.24 6.239-6.24h39.533c3.426,0 6.237,2.811 6.237,6.24 0,3.425-2.811,6.238-6.237,6.238h-13.001v42.785c0,3.773-2.99,6.761-6.764,6.761-3.779,0-6.764-2.989-6.764-6.761v-42.785z"/>
    <path d="m352.615,29.149c0-3.781 2.985-6.767 6.767-6.767 3.774,0 6.761,2.985 6.761,6.767v49.024c0,3.773-2.987,6.761-6.761,6.761-3.781,0-6.767-2.989-6.767-6.761v-49.024z"/>
    <path d="m374.132,53.836v-0.179c0-17.481 13.178-31.801 32.065-31.801 9.22,0 15.459,2.458 20.557,6.238 1.402,1.054 2.637,2.985 2.637,5.357 0,3.692-2.985,6.59-6.681,6.59-1.845,0-3.071-0.702-4.044-1.319-3.776-2.813-7.729-4.393-12.562-4.393-10.364,0-17.831,8.611-17.831,19.154v0.173c0,10.542 7.291,19.329 17.831,19.329 5.715,0 9.492-1.756 13.359-4.834 1.049-0.874 2.458-1.491 4.039-1.491 3.429,0 6.325,2.813 6.325,6.236 0,2.106-1.056,3.78-2.282,4.834-5.539,4.834-12.036,7.733-21.878,7.733-18.095,0.001-31.535-13.97-31.535-31.627z"/>
    <path d="m433.009,53.836v-0.179c0-17.481 13.79-31.801 32.766-31.801 18.981,0 32.592,14.143 32.592,31.628v0.173c0,17.483-13.785,31.807-32.769,31.807-18.973,0-32.589-14.144-32.589-31.628zm51.215,0v-0.179c0-10.539-7.725-19.326-18.626-19.326-10.893,0-18.449,8.611-18.449,19.154v0.173c0,10.542 7.73,19.329 18.626,19.329 10.901-0.001 18.449-8.609 18.449-19.151z"/>
    <path d="m506.233,29.321c0-3.774 2.99-6.763 6.767-6.763h1.401c3.252,0 5.183,1.583 7.029,3.953l26.093,34.265v-31.717c0-3.692 2.99-6.677 6.681-6.677 3.683,0 6.671,2.985 6.671,6.677v48.934c0,3.78-2.987,6.765-6.764,6.765h-0.436c-3.257,0-5.188-1.581-7.034-3.953l-27.056-35.492v32.944c0,3.687-2.985,6.676-6.678,6.676-3.683,0-6.673-2.989-6.673-6.676v-48.936z"/>
  </g>
  <g class="insignia">
    <path fill="#ffffff" d="M48.372,56.137h12.517l11.156-18.537H37.186L25.688,18.539h57.825L94.668,0H9.271    C5.925,0,2.842,1.801,1.198,4.716c-1.644,2.907-1.593,6.482,0.134,9.343l50.38,83.501c1.678,2.781,4.689,4.476,7.938,4.476    c3.246,0,6.257-1.695,7.935-4.476l2.898-4.804L48.372,56.137z"/>
    <g class="i" fill="#A9FD00">
      <path d="m93.575,18.539h0.031v0.004l21.652,.004 2.705-4.488c1.727-2.861 1.778-6.436 0.133-9.343-1.642-2.915-4.725-4.716-8.07-4.716h-5.294l-11.157,18.539z"/>
      <polygon points="88.291,27.356 64.725,66.486 75.519,84.404 109.942,27.356  "/>
    </g>
  </g>
</svg>
